<svg id="Capa_1" data-name="Capa 1" xmlns="http://www.w3.org/2000/svg" viewBox="0 0 469 120"><defs><style>.cls-1{fill:#07a745;}</style></defs><g id="hmFC9t"><rect class="cls-1" x="19.9" y="93" width="428" height="10"/><rect class="cls-1" x="19.9" y="17" width="428" height="10"/><path class="cls-1" d="M35.53,80.2v-39c-1.71,0-3.68.18-5.91.37l-1.46.07a14.06,14.06,0,0,0-1.94,4,16.58,16.58,0,0,0-.84,4.49,15.47,15.47,0,0,1-2.63.22,13.5,13.5,0,0,1-2.41-.22V36.4q11.25.29,20.52.29,5.55,0,11.64-.11c4.06-.07,7-.13,8.94-.18V50.12a12.71,12.71,0,0,1-2.41.22,15.44,15.44,0,0,1-2.62-.22,26.6,26.6,0,0,0-1-4.63,16.31,16.31,0,0,0-1.64-3.76,63.26,63.26,0,0,0-7.52-.59V80.2c1,1,2.85,1.7,5.47,2.19l-.51,3H30l.29-3A10.35,10.35,0,0,0,35.53,80.2Z"/><path class="cls-1" d="M67.1,81.62A7.8,7.8,0,0,0,69,80.2V41.87a12.14,12.14,0,0,0-4.45-2.33l.29-2.85H85.39q18.67,0,18.68,12.85a12.48,12.48,0,0,1-2.4,7.81A14.21,14.21,0,0,1,94.58,62a11.33,11.33,0,0,1,3.8,4.82l5.48,13a3.06,3.06,0,0,0,1.56,1.57,15.54,15.54,0,0,0,2.89,1l-.51,3H94.51l-7.08-19c-.68-1.85-2.17-2.8-4.45-2.85l-3.29-.15V80.2q1.53,1.53,5.48,2.33l-.51,2.85H64.51l.29-3A9.22,9.22,0,0,0,67.1,81.62ZM92.76,49.68a8.62,8.62,0,0,0-2.19-6.31,8.18,8.18,0,0,0-6.13-2.23,31.88,31.88,0,0,0-4.75.29V58.88h4.75Q92.76,58.88,92.76,49.68Z"/><path class="cls-1" d="M115.5,79.69Q110,73.26,110,60.92t5.51-18.65q5.5-6.37,16.31-6.38t16.28,6.38q5.47,6.39,5.48,18.65t-5.48,18.77q-5.47,6.42-16.28,6.42T115.5,79.69ZM139.19,77q2.26-4.9,2.26-16.07t-2.26-16a7.65,7.65,0,0,0-7.38-4.85A7.77,7.77,0,0,0,124.33,45q-2.3,4.86-2.3,16T124.33,77a7.76,7.76,0,0,0,7.48,4.89A7.64,7.64,0,0,0,139.19,77Z"/><path class="cls-1" d="M160.17,81.62A8,8,0,0,0,162,80.2V41.87a12.2,12.2,0,0,0-4.46-2.33l.29-2.85h20.59q19,0,19,13.58,0,7.08-5.18,10.87t-14.89,3.8c-1.07,0-2.63-.07-4.67-.22V80.2q1.53,1.53,5.47,2.33l-.51,2.85H157.58l.29-3A9,9,0,0,0,160.17,81.62ZM184,57.82q2.19-2.52,2.19-7.41a9.58,9.58,0,0,0-2.3-6.86,8.43,8.43,0,0,0-6.39-2.41,31.63,31.63,0,0,0-4.74.29V60.34h4.74Q181.82,60.34,184,57.82Z"/><path class="cls-1" d="M206.42,80.2V41.87a7.06,7.06,0,0,0-2.34-1.35,14.63,14.63,0,0,0-3.21-.84l.37-3h21.38l-.43,3a17.22,17.22,0,0,0-2.85.81,7.8,7.8,0,0,0-2.19,1.38V80.2c1,.92,2.8,1.65,5.47,2.19l-.51,3H200.87l.29-3A10.42,10.42,0,0,0,206.42,80.2Z"/><path class="cls-1" d="M232,79.91q-5.35-6.21-5.36-18.25,0-12.63,5.29-19.06t15.66-6.42a23.22,23.22,0,0,1,7.77,1.2,12.32,12.32,0,0,1,5.3,3.4,7.48,7.48,0,0,1,1.89,5,6.38,6.38,0,0,1-1.67,4.46,5.46,5.46,0,0,1-4.17,1.82,6.28,6.28,0,0,1-3.32-1,5.9,5.9,0,0,1-2.3-2.41,7.53,7.53,0,0,0,1.17-3.86,4.69,4.69,0,0,0-1.35-3.51,5,5,0,0,0-3.61-1.31q-8.62,0-8.62,20.36,0,10.31,2.7,15.52a9.1,9.1,0,0,0,8.69,5.22,13.12,13.12,0,0,0,5.77-1.39,18.12,18.12,0,0,0,5.33-4.09L263.58,78A25.57,25.57,0,0,1,256,84a18.33,18.33,0,0,1-8.29,2.12Q237.37,86.11,232,79.91Z"/><path class="cls-1" d="M268.21,81.8a2.94,2.94,0,0,0,1.57-1.53l15.4-43.58h7.6l15.54,42.85a3.76,3.76,0,0,0,1.5,1.86,8.5,8.5,0,0,0,3.1,1.06l-.36,2.92h-20l.43-2.92q3.36-.51,4.38-1.83L293.94,70.2h-15L275.4,80.27a12,12,0,0,0,6.21,2.19l-.37,2.92h-16.5l.44-2.92A7.63,7.63,0,0,0,268.21,81.8Zm24.2-16.2-5.69-17.52L280.51,65.6Z"/><path class="cls-1" d="M317.67,81.69a4.93,4.93,0,0,0,1.75-1.13V41.87a15,15,0,0,0-4.53-2.19l.37-3h20.37l-.44,3a17.22,17.22,0,0,0-2.85.81,7.8,7.8,0,0,0-2.19,1.38v39h12.78a25.18,25.18,0,0,0,3.43-9.27,20.93,20.93,0,0,1,3-.22,14.49,14.49,0,0,1,2.41.22L351,85.38H315l.29-3A8.59,8.59,0,0,0,317.67,81.69Z"/><path class="cls-1" d="M355.12,62.46H372v6.93H355.12Z"/><path class="cls-1" d="M382.64,80.2V41.87a7.06,7.06,0,0,0-2.34-1.35,14.63,14.63,0,0,0-3.21-.84l.36-3h21.39l-.44,3a17.36,17.36,0,0,0-2.84.81,7.8,7.8,0,0,0-2.19,1.38V80.2c1,.92,2.8,1.65,5.47,2.19l-.51,3H377.09l.29-3A10.42,10.42,0,0,0,382.64,80.2Z"/><path class="cls-1" d="M404.21,81.8a3,3,0,0,0,1.57-1.53l15.4-43.58h7.59l15.55,42.85a3.7,3.7,0,0,0,1.5,1.86,8.43,8.43,0,0,0,3.1,1.06l-.37,2.92h-20l.44-2.92q3.36-.51,4.38-1.83L429.94,70.2h-15l-3.5,10.07a12,12,0,0,0,6.2,2.19l-.36,2.92h-16.5l.44-2.92A7.71,7.71,0,0,0,404.21,81.8Zm24.2-16.2-5.7-17.52-6.2,17.52Z"/></g></svg>