<?xml version="1.0" encoding="UTF-8" standalone="no"?>
<svg
   xmlns:dc="http://purl.org/dc/elements/1.1/"
   xmlns:cc="http://creativecommons.org/ns#"
   xmlns:rdf="http://www.w3.org/1999/02/22-rdf-syntax-ns#"
   xmlns:svg="http://www.w3.org/2000/svg"
   xmlns="http://www.w3.org/2000/svg"
   xmlns:sodipodi="http://sodipodi.sourceforge.net/DTD/sodipodi-0.dtd"
   xmlns:inkscape="http://www.inkscape.org/namespaces/inkscape"
   version="1.1"
   id="Capa_1"
   x="0px"
   y="0px"
   viewBox="0 0 800 800"
   xml:space="preserve"
   sodipodi:docname="trops.svg"
   width="800"
   height="800"
   inkscape:version="1.0.2 (1.0.2+r75+1)"><metadata
   id="metadata3316"><rdf:RDF><cc:Work
       rdf:about=""><dc:format>image/svg+xml</dc:format><dc:type
         rdf:resource="http://purl.org/dc/dcmitype/StillImage" /><dc:title></dc:title></cc:Work></rdf:RDF></metadata><defs
   id="defs3314" /><sodipodi:namedview
   pagecolor="#ffffff"
   bordercolor="#666666"
   borderopacity="1"
   objecttolerance="10"
   gridtolerance="10"
   guidetolerance="10"
   inkscape:pageopacity="0"
   inkscape:pageshadow="2"
   inkscape:window-width="2493"
   inkscape:window-height="1385"
   id="namedview3312"
   showgrid="false"
   inkscape:zoom="1.2226042"
   inkscape:cx="200.47599"
   inkscape:cy="443.71436"
   inkscape:window-x="67"
   inkscape:window-y="27"
   inkscape:window-maximized="1"
   inkscape:current-layer="Capa_1" />
<style
   type="text/css"
   id="style3299">
	.st0{fill:#E22314;}
	.st1{fill:#E22214;}
</style>
<g
   id="g3309"
   transform="matrix(1.0923937,0,0,1.0923937,3.5592485,178.55881)">
	<path
   class="st0"
   d="m 338,0 c 14.33,0 28.67,0 43,0 5.33,0.64 10.64,1.41 15.98,1.89 19.86,1.8 39.81,2.95 59.59,5.39 27.87,3.43 55.51,8.4 82.7,15.63 37.49,9.98 73.37,23.75 106.17,44.81 20.12,12.92 38.78,27.62 54.25,46 12.51,14.87 21.49,31.55 24.95,50.9 0.74,4.14 1.57,8.26 2.35,12.38 0,4.33 0,8.67 0,13 -0.4,1.16 -1.03,2.3 -1.16,3.49 -2.48,22.48 -12.51,41.48 -26.94,58.43 -14.59,17.14 -31.72,31.34 -50.77,43.2 -37.4,23.28 -78.21,38.46 -120.55,49.76 -46.2,12.33 -93.34,17.94 -141.06,19.14 -1.51,0.04 -3,0.64 -4.51,0.97 -9.33,0 -18.67,0 -28,0 -1.49,-0.35 -2.97,-0.95 -4.48,-1 -32.1,-1.12 -64.11,-3.21 -95.94,-7.89 C 218,350.86 183.25,342.42 149.51,329.98 110.18,315.47 73.9,295.64 42.81,267.16 22.2,248.28 7.18,226.01 2.35,197.85 1.68,193.88 0.79,189.95 0,186 c 0,-2.67 0,-5.33 0,-8 0.34,-1 0.91,-1.98 0.99,-3.01 1.4,-16.4 6.55,-31.46 15.41,-45.35 C 28.75,110.28 44.55,94.2 62.83,80.51 89.6,60.45 119.6,46.44 150.78,34.94 206.03,14.56 263.5,5.37 322.04,1.92 327.38,1.6 332.68,0.66 338,0 Z m -40.11,162.25 c 0.5,6.75 1.31,17.03 2,27.32 1.17,17.31 5.18,33.99 11.18,50.2 5.83,15.77 14.12,30.05 26.64,41.54 11.29,10.36 24.15,13.31 38.76,7.89 8.38,-3.11 14.99,-8.48 20.67,-15.18 11.28,-13.28 18,-28.84 22.9,-45.38 4.82,-16.29 7.25,-32.98 8.84,-49.82 0.61,-6.45 1.12,-12.99 0.82,-19.44 -0.51,-10.62 -1.73,-21.2 -2.63,-31.8 -1.74,-20.46 -6.81,-40.08 -15.15,-58.82 -4.91,-11.03 -11.36,-21.09 -20.44,-29.2 -18.19,-16.24 -42.81,-14.89 -59.18,3.17 -7.89,8.71 -13.78,18.66 -18.38,29.46 -11.8,27.65 -15.16,56.83 -16.03,90.06 z M 167.78,91.35 c 0,53.28 0,106.36 0,159.75 -4.37,-0.32 -8.41,-0.62 -12.74,-0.94 0,6.7 0.1,12.84 -0.04,18.99 -0.06,2.86 1.18,3.66 3.84,3.88 14.1,1.16 28.19,2.53 42.28,3.75 5.1,0.44 10.21,0.66 15.61,1 0,-7.79 0,-15.22 0,-22.96 -4.22,-0.54 -8.41,-1.08 -12.35,-1.59 0,-17.02 0,-33.42 0,-49.8 10.12,-0.68 10.06,-0.66 13.87,8 9.35,21.26 18.81,42.48 28.11,63.77 1.42,3.26 3.18,5.12 7.05,4.85 3.13,-0.22 6.31,0.43 9.47,0.46 7.95,0.08 15.9,0.03 24.14,0.03 0,-7.39 0,-14.78 0,-22.61 -2.85,0 -5.49,-0.19 -8.1,0.05 -2.99,0.27 -4.48,-1.01 -5.62,-3.68 -8.7,-20.29 -17.49,-40.54 -26.35,-60.76 -1.08,-2.46 -1.16,-4.21 1.05,-6.1 1.88,-1.61 3.47,-3.6 4.96,-5.58 16.54,-22 23.03,-46.94 20.87,-74.14 C 272.79,94.67 269.01,82.28 261.85,71.14 253.41,58 240.58,52.43 225.32,55.75 c -13.77,3 -27.48,6.34 -41.13,9.87 -8.45,2.19 -16.77,4.9 -25.05,7.68 -1.58,0.53 -3.76,2.37 -3.85,3.73 -0.42,5.94 -0.18,11.92 -0.18,18.61 4.58,-1.57 8.6,-2.92 12.67,-4.29 z M 458.04,67.98 c 0,63.34 0,126.1 0,189.13 -4.31,0.37 -8.39,0.72 -12.44,1.07 0,7.77 0,15.17 0,23.12 20.79,-1.07 41.18,-2.12 61.84,-3.19 0,-8.09 0,-15.48 0,-23.1 -4.63,0 -8.89,0 -13.19,0 0,-16.96 0,-33.64 0,-50.04 9.02,-0.69 17.54,-0.88 25.91,-2.08 20.14,-2.88 34.7,-13.18 42.28,-32.66 8.23,-21.16 8.84,-42.53 2.97,-64.32 -3.89,-14.46 -10.9,-26.84 -23.63,-35.1 -7.63,-4.95 -15.65,-9.49 -23.94,-13.22 -17.75,-7.99 -36.74,-11.37 -55.98,-13.4 -5.39,-0.57 -10.82,-0.73 -16.71,-1.1 0,7.92 0,15.16 0,22.73 4.2,0.69 8.41,1.4 12.89,2.16 z m 147.09,142.21 c -8,7.69 -15.52,14.95 -23.1,22.15 -1.58,1.5 -1.29,2.83 -0.13,4.35 2.92,3.84 5.54,7.94 8.73,11.54 15.47,17.48 34.64,24.14 57.49,18.56 17.32,-4.24 30.88,-13.42 35.84,-31.57 5.86,-21.47 1.13,-40.85 -15.31,-55.87 -11.75,-10.73 -25.25,-19.54 -37.86,-29.34 -3.93,-3.05 -7.85,-6.25 -11.16,-9.94 -4.79,-5.34 -6.82,-11.73 -4.78,-18.97 1.86,-6.59 7.36,-9.81 14.17,-8.56 5.43,1 10.1,3.47 13.75,7.46 5.24,5.74 10.15,11.77 15.56,18.11 4.85,-3.92 10.13,-8.17 15.4,-12.44 1.61,-1.31 1.62,-2.73 0.26,-4.28 -2.62,-3.01 -5,-6.26 -7.81,-9.07 -12.66,-12.68 -27.08,-22.16 -45.1,-25.57 -16.86,-3.19 -29.98,5.99 -33.86,21.09 -5.24,20.36 -0.99,38.9 14.16,53.76 8.39,8.23 18.2,15.03 27.4,22.42 5.32,4.27 10.78,8.37 16.06,12.69 8.47,6.92 11.44,16.03 10.1,26.69 -1.17,9.26 -11.18,14.98 -21.42,12.21 -9.53,-2.57 -17.14,-7.91 -22.62,-16.17 -1.81,-2.76 -3.5,-5.61 -5.77,-9.25 z M 108.59,245.1 c -0.39,-0.81 -0.52,-0.96 -0.52,-1.11 -0.04,-40.66 -0.06,-81.33 -0.15,-121.99 -0.01,-2.48 1.19,-3.35 3.29,-4.19 8.27,-3.32 16.5,-6.76 24.64,-10.4 1.58,-0.71 3.83,-2.48 3.84,-3.76 0.01,-7.75 -0.54,-15.5 -0.93,-23.82 -2.58,1.07 -4.55,1.81 -6.46,2.7 -14.7,6.81 -29.39,13.65 -44.09,20.49 -15.08,7.02 -29.45,15.21 -42.18,26.02 -1.41,1.2 -3.1,3.04 -3.19,4.66 -0.36,6.72 -0.15,13.47 -0.15,21.36 10.65,-7.54 20.17,-14.27 30.09,-21.3 0,36.21 0,71.61 0,107.35 -4.64,-0.43 -8.99,-0.83 -13.76,-1.27 0,5.76 -0.01,10.9 0,16.04 0.01,5.35 0.15,5.38 5.51,6.06 11.88,1.51 23.74,3.18 35.63,4.7 6.73,0.86 13.48,1.55 20.53,2.36 0,-7.5 0,-14.6 0,-22.13 -4.05,-0.61 -8.12,-1.19 -12.1,-1.77 z"
   id="path3301" />
	<path
   class="st1"
   d="m 391.09,160.25 c -1.02,24.82 -2.66,49.77 -11.01,73.7 -1.63,4.68 -3.65,9.26 -5.85,13.7 -1.24,2.49 -2.99,4.83 -4.92,6.84 -4.7,4.89 -11.14,5.48 -16,0.79 -3.37,-3.25 -6.22,-7.37 -8.23,-11.62 -4.61,-9.77 -6.93,-20.29 -8.13,-31.01 -1.61,-14.34 -3.33,-28.67 -4.53,-43.04 -0.63,-7.62 -0.42,-15.32 -0.32,-22.98 0.33,-24.16 3.82,-47.79 11.81,-70.7 2.31,-6.62 5.83,-12.18 11.13,-16.76 3.34,-2.89 6.75,-3.07 10.63,-1.48 7.29,2.99 10.94,9.24 13.26,16.03 2.56,7.45 4.43,15.21 5.87,22.97 3.88,20.92 5.58,42.08 6.29,63.56 z"
   id="path3303" />
	<path
   class="st0"
   d="m 204,180.98 c 0,-1.65 0,-3.12 0,-4.59 0,-30.28 0.08,-60.56 -0.1,-90.84 -0.02,-3.93 1.46,-5.54 4.91,-6.68 9.8,-3.24 17.16,-0.58 22.44,8.33 4.63,7.82 5.87,16.53 6.5,25.31 1.27,17.79 -2.02,34.76 -10.87,50.33 -2.75,4.83 -6.63,9.1 -10.41,13.25 -3.1,3.41 -7.36,4.84 -12.47,4.89 z"
   id="path3305" />
	<path
   class="st0"
   d="m 492.21,73.55 c 2.2,0.37 4,0.48 5.68,0.97 23.59,6.88 37.96,22.18 42.21,46.56 2.57,14.71 0.95,28.84 -7.12,41.7 -5.79,9.24 -13.1,16.91 -24.54,18.72 -4.54,0.72 -9.23,0.51 -14.46,0.75 -0.58,-36.34 -1.17,-72.22 -1.77,-108.7 z"
   id="path3307" />
</g>
</svg>
